<svg xmlns="http://www.w3.org/2000/svg" xmlns:xlink="http://www.w3.org/1999/xlink" version="1.1" x="0px" y="0px" viewBox="246 -156 60 75" enable-background="new 246 -156 60 60" xml:space="preserve"><path d="M297.6-117.2c-0.5,6.2-2.6,10.2-5.2,12.7c-3.5,3.4-7.9,4.2-10.4,4.3c-1.4,0-2.9-0.2-4.6-0.5c0,0,0,0-0.1,0  c-5.5-1.8-8.2-7.6-9.4-13.4c-0.6-2.9-1-6.5-1-10.9c0,0,0-0.1,0-0.3c0-2.2,0.1-3.5,0.1-3.5c0.3-19,6.9-23.2,10.2-24.1  c0.2,0,0.3-0.1,0.5-0.1c0,0,0.5-0.1,1.3-0.1c2.4-0.1,7.7,0,11.6,3.7c1.2,1.2,2.3,2.7,3.1,4.6c-0.2,0-0.3-0.1-0.5-0.1  c-0.8-0.3-1.7-0.4-2.6-0.4c-4.6,0-8.4,3.7-8.4,8.4c0,4.6,3.7,8.4,8.4,8.4c1.9,0,3.6-0.6,5-1.7c0.6-0.3,1.2-0.7,1.6-1.1  c3.9-3.7,1.4-11.6,1.4-11.6c-6.2-13.8-21.1-12.9-21.1-12.9c-21.9,1.5-24.8,25.6-24.8,25.6c-1.5,8.4,1.5,15.7,1.5,15.7  c6.9,19.6,24.3,18.7,24.3,18.7c19.8-0.9,20.4-20,20.4-20C299-118.9,297.6-117.2,297.6-117.2z"/><text x="246" y="-81" fill="#000000" font-size="5px" font-weight="bold" font-family="'Helvetica Neue', Helvetica, Arial-Unicode, Arial, Sans-serif">Created by Dilon Choudhury</text><text x="246" y="-76" fill="#000000" font-size="5px" font-weight="bold" font-family="'Helvetica Neue', Helvetica, Arial-Unicode, Arial, Sans-serif">from the Noun Project</text></svg>